# xmcd
#
# Track frame offsets:
#	183
#	17793
#	31558
#	47865
#	62018
#	78453
#	93715
#	111373
#	128615
#	146008
#	162348
#	177555
#
# Disc length: 2577 seconds
#
# Revision: 1
# Processed by: cddbd v1.5.2PL0 Copyright (c) Steve Scherf et al.
# Submitted via: EZCDAudioConverter 8.2.2.1
#
DISCID=a10a0f0c
DTITLE=GIAN and GIOVANI - VOL.03 - OLHA AMOR [CD 2-07-800-361) GEL CHANTECLER
DYEAR=1992
DGENRE=SERTANEJO
TTITLE0=OLHA AMOR (BY GILMAR SINISTRO)
TTITLE1=EU QUERO TE AMAR (BY GILMAR SINISTRO)
TTITLE2=NÃO DÁ PRA TE ESQUECER (BY GILMAR SINISTRO)
TTITLE3=É HORA DE RECOMEÇAR (BY GILMAR SINISTRO)
TTITLE4=POR QUE SERÁ? (BY GILMAR SINISTRO)
TTITLE5=COM OUTRO FOI EMBORA (BY GILMAR SINISTRO)
TTITLE6=MEU VERDADEIRO AMOR (BY GILMAR SINISTRO)
TTITLE7=ME CHAMA DE VOLTA (BY GILMAR SINISTRO)
TTITLE8=PASSARELA DO MEU CORAÇÃO (BY GILMAR SINISTRO)
TTITLE9=MOMENTOS A DOIS (BY GILMAR SINISTRO)
TTITLE10=SOU EU (BY GILMAR SINISTRO)
TTITLE11=ANTIGO RETRATO (BY GILMAR SINISTRO)
EXTD=
EXTT0=
EXTT1=
EXTT2=
EXTT3=
EXTT4=
EXTT5=
EXTT6=
EXTT7=
EXTT8=
EXTT9=
EXTT10=
EXTT11=
PLAYORDER=
